<svg xmlns="http://www.w3.org/2000/svg" xmlns:xlink="http://www.w3.org/1999/xlink" width="1100" height="400"><defs><path id="a" d="M117.973 98.347h864.055v203.307H117.973z"/></defs><defs><path id="c" d="M156.375 246.93c-6.099 0-9.148-4.217-9.148-12.649v-79.459h23.606v-15.586h-23.606v-28.237l-17.958 5.987v22.25h-11.295v15.586h11.295v79.459a32.75 32.75 0 0 0 6.89 22.59 26.709 26.709 0 0 0 20.952 7.737 28.84 28.84 0 0 0 10.842-2.485 22.56 22.56 0 0 0 8.923-6.213l-12.368-12.988a8.755 8.755 0 0 1-8.133 4.008z"/></defs><clipPath id="b"><use xlink:href="#a" overflow="visible"/></clipPath><clipPath id="d" clip-path="url(#b)"><use xlink:href="#c" overflow="visible"/></clipPath><path clip-path="url(#d)" fill="#0076F0" d="M75.617 68.642h143.614v238.401H75.617z"/><defs><path id="e" d="M117.973 98.347h864.055v203.307H117.973z"/></defs><defs><path id="g" d="M208.331 140.872a21.545 21.545 0 0 0-5.646 6.438l-4.066-7.793h-11.747v122.266h17.902v-92.674a13.947 13.947 0 0 1 3.558-9.883 11.291 11.291 0 0 1 8.359-3.896 7.23 7.23 0 0 1 5.648 1.581l6.099-15.812a14.505 14.505 0 0 0-10.673-3.218 14.335 14.335 0 0 0-9.434 2.991z"/></defs><clipPath id="f"><use xlink:href="#e" overflow="visible"/></clipPath><clipPath id="h" clip-path="url(#f)"><use xlink:href="#g" overflow="visible"/></clipPath><path clip-path="url(#h)" fill="#0076F0" d="M144.516 95.449h126.276v208.689H144.516z"/><defs><path id="i" d="M117.973 98.347h864.055v203.307H117.973z"/></defs><defs><path id="k" d="M278.755 233.885a12.087 12.087 0 0 1-3.672 9.714 13.325 13.325 0 0 1-8.922 3.105 12.757 12.757 0 0 1-9.036-3.332 12.358 12.358 0 0 1-3.614-9.487v-94.65h-17.846v92.843a36.656 36.656 0 0 0 7.003 24.058 23.66 23.66 0 0 0 19.201 8.415 22.202 22.202 0 0 0 12.933-2.993 25.679 25.679 0 0 0 5.986-5.648l4.067 5.648h11.803V139.235h-17.902v94.65h-.001z"/></defs><clipPath id="j"><use xlink:href="#i" overflow="visible"/></clipPath><clipPath id="l" clip-path="url(#j)"><use xlink:href="#k" overflow="visible"/></clipPath><path clip-path="url(#l)" fill="#0076F0" d="M193.23 96.879h145.782v210.092H193.23z"/><defs><path id="m" d="M117.973 98.347h864.055v203.307H117.973z"/></defs><defs><path id="o" d="M367.588 214.231a52.149 52.149 0 0 0-10.9-12.312l-12.819-10.73a73.66 73.66 0 0 1-10.786-10.843 19.71 19.71 0 0 1-4.462-12.65 14.405 14.405 0 0 1 3.163-9.827 11.291 11.291 0 0 1 8.866-3.614 11.697 11.697 0 0 1 8.867 3.501 13.213 13.213 0 0 1 3.332 9.543v4.461l17.507 4.01v-8.472a30.539 30.539 0 0 0-7.511-21.458 27.728 27.728 0 0 0-21.686-7.963 33.261 33.261 0 0 0-12.312 2.201 29.194 29.194 0 0 0-9.656 6.1 26.875 26.875 0 0 0-6.326 9.431 31.975 31.975 0 0 0-2.259 12.141 37.432 37.432 0 0 0 2.768 14.853 44.722 44.722 0 0 0 7.229 11.634 67.9 67.9 0 0 0 6.89 7.004 222.09 222.09 0 0 0 7.398 6.212l7.398 6.042a64.054 64.054 0 0 1 7.229 6.383 21.957 21.957 0 0 1 3.445 6.099 23.618 23.618 0 0 1 1.017 7.906c0 8.547-4.612 12.819-13.836 12.819a13.215 13.215 0 0 1-9.544-3.501 12.31 12.31 0 0 1-3.672-9.318v-4.631l-17.901-3.783v8.414a33.246 33.246 0 0 0 2.259 12.425 27.045 27.045 0 0 0 6.382 9.6 29.186 29.186 0 0 0 9.883 6.213 34.61 34.61 0 0 0 12.594 2.203c4.93.112 9.825-.851 14.344-2.824a28.699 28.699 0 0 0 9.94-7.511 31.42 31.42 0 0 0 5.647-10.73 41.113 41.113 0 0 0 2.033-12.367 31.9 31.9 0 0 0-1.242-8.697 31.057 31.057 0 0 0-3.279-7.964z"/></defs><clipPath id="n"><use xlink:href="#m" overflow="visible"/></clipPath><clipPath id="p" clip-path="url(#n)"><use xlink:href="#o" overflow="visible"/></clipPath><path clip-path="url(#p)" fill="#0076F0" d="M266.667 95.439h147.795v211.25H266.667z"/><g><defs><path id="q" d="M117.973 98.347h864.055v203.307H117.973z"/></defs><defs><path id="s" d="M418.189 246.93c-6.099 0-9.149-4.217-9.149-12.649v-79.459h23.606v-15.586H409.04v-28.237l-17.903 5.987v22.25h-11.294v15.586h11.294v79.459a32.756 32.756 0 0 0 6.89 22.59 26.712 26.712 0 0 0 20.953 7.737 28.816 28.816 0 0 0 10.786-2.485 22.574 22.574 0 0 0 8.923-6.213l-12.368-12.988a8.751 8.751 0 0 1-8.132 4.008z"/></defs><clipPath id="r"><use xlink:href="#q" overflow="visible"/></clipPath><clipPath id="t" clip-path="url(#r)"><use xlink:href="#s" overflow="visible"/></clipPath><path clip-path="url(#t)" fill="#0076F0" d="M337.488 68.642h143.558v238.401H337.488z"/></g><g><defs><path id="u" d="M117.973 98.347h864.055v203.307H117.973z"/></defs><defs><path id="w" d="M457.439 98.347a8.245 8.245 0 0 0-6.721 3.332 11.754 11.754 0 0 0-2.654 7.512 11.854 11.854 0 0 0 2.654 7.793 8.307 8.307 0 0 0 6.721 3.218 7.737 7.737 0 0 0 6.495-3.218 13.56 13.56 0 0 0 2.654-7.793 11.916 11.916 0 0 0-2.542-7.625 8.076 8.076 0 0 0-6.607-3.219z"/></defs><clipPath id="v"><use xlink:href="#u" overflow="visible"/></clipPath><clipPath id="x" clip-path="url(#v)"><use xlink:href="#w" overflow="visible"/></clipPath><path clip-path="url(#x)" fill="#0076F0" d="M405.705 55.99h103.242v106.571H405.705z"/></g><g><defs><path id="y" d="M448.064 139.235h17.902v122.492h-17.902z"/></defs><clipPath id="z"><use xlink:href="#y" overflow="visible"/></clipPath><path clip-path="url(#z)" fill="#0076F0" d="M405.708 96.879h102.613v207.203H405.708z"/></g><g><defs><path id="A" d="M117.973 98.347h864.055v203.307H117.973z"/></defs><defs><path id="C" d="M514.535 137.88a29.752 29.752 0 0 0-11.973 1.976 22.04 22.04 0 0 0-7.511 5.647l-4.066-5.647h-11.577v121.928h17.903v-94.482a11.292 11.292 0 0 1 4.349-9.713 15.872 15.872 0 0 1 19.427 0 11.293 11.293 0 0 1 4.291 9.713v94.482h17.903v-95.046a28.8 28.8 0 0 0-7.85-21.177 27.723 27.723 0 0 0-20.896-7.681z"/></defs><clipPath id="B"><use xlink:href="#A" overflow="visible"/></clipPath><clipPath id="D" clip-path="url(#B)"><use xlink:href="#C" overflow="visible"/></clipPath><path clip-path="url(#D)" fill="#0076F0" d="M437.051 95.472h148.617v208.667H437.051z"/></g><g><defs><path id="E" d="M117.973 98.347h864.055v203.307H117.973z"/></defs><defs><path id="G" d="M582.529 243.824a8.474 8.474 0 0 1-1.468-4.292 8.689 8.689 0 0 1 2.032-5.647 13.156 13.156 0 0 1 9.263-2.823 33.087 33.087 0 0 0 22.589-8.811 28.693 28.693 0 0 0 6.721-20.048v-48.116l8.527-13.44h-22.194a25.77 25.77 0 0 0-6.946-2.09 64.373 64.373 0 0 0-11.803-.677 29.924 29.924 0 0 0-21.912 7.905 29.136 29.136 0 0 0-8.075 21.742v34.902a28.237 28.237 0 0 0 16.151 26.656 13.148 13.148 0 0 0-7.625 4.123 9.197 9.197 0 0 0-2.315 5.646 10.45 10.45 0 0 0 1.412 5.647 7.8 7.8 0 0 0 4.688 3.389 28.244 28.244 0 0 0-15.079 8.584 22.591 22.591 0 0 0-5.647 15.248 23.56 23.56 0 0 0 6.946 17.847 27.457 27.457 0 0 0 19.993 6.438h23.38l9.771-17.62h-32.756a12.889 12.889 0 0 1-6.833-1.694 5.647 5.647 0 0 1-2.768-5.646c0-4.745 3.596-7.117 10.786-7.117h36.37l9.939-17.619h-38.968a5.66 5.66 0 0 1-4.179-2.487zm-5.647-41.225v-35.692a11.861 11.861 0 0 1 3.953-9.939 15.761 15.761 0 0 1 18.807 0 11.692 11.692 0 0 1 4.009 9.939v35.692a11.298 11.298 0 0 1-4.065 9.6 15.361 15.361 0 0 1-18.807 0 11.637 11.637 0 0 1-4.01-9.6h.113z"/></defs><clipPath id="F"><use xlink:href="#E" overflow="visible"/></clipPath><clipPath id="H" clip-path="url(#F)"><use xlink:href="#G" overflow="visible"/></clipPath><path clip-path="url(#H)" fill="#0076F0" d="M508.465 95.481h164.083v242.971H508.465z"/></g><g><defs><path id="I" d="M117.973 98.347h864.055v203.307H117.973z"/></defs><defs><path id="K" d="M696.043 214.231a52.107 52.107 0 0 0-10.9-12.312l-12.933-10.73a73.472 73.472 0 0 1-10.787-10.843 19.709 19.709 0 0 1-4.46-12.65 14.403 14.403 0 0 1 3.161-9.827 11.293 11.293 0 0 1 8.867-3.614 11.694 11.694 0 0 1 8.866 3.501 13.219 13.219 0 0 1 3.333 9.543v4.461l17.506 4.01v-8.472a30.543 30.543 0 0 0-7.511-21.458 27.723 27.723 0 0 0-21.573-7.963 33.268 33.268 0 0 0-12.312 2.201 29.228 29.228 0 0 0-9.6 5.875 26.925 26.925 0 0 0-6.326 9.43 31.975 31.975 0 0 0-2.259 12.141 37.449 37.449 0 0 0 2.767 14.853 44.786 44.786 0 0 0 6.946 11.633 67.902 67.902 0 0 0 6.891 7.003 222.128 222.128 0 0 0 7.398 6.213l7.397 6.042a64.008 64.008 0 0 1 6.89 6.608 21.935 21.935 0 0 1 3.446 6.099 23.628 23.628 0 0 1 1.863 7.906c0 8.547-4.612 12.819-13.837 12.819a13.22 13.22 0 0 1-9.545-3.501 12.317 12.317 0 0 1-3.952-9.318v-4.631l-17.846-3.614v8.245a33.285 33.285 0 0 0 2.258 12.425 27.061 27.061 0 0 0 6.383 9.6 29.202 29.202 0 0 0 9.826 6.213 34.61 34.61 0 0 0 12.594 2.203 33.93 33.93 0 0 0 14.345-2.824 28.695 28.695 0 0 0 9.939-7.511 31.42 31.42 0 0 0 5.647-10.73 41.124 41.124 0 0 0 1.92-12.65 31.855 31.855 0 0 0-1.243-8.696 30.934 30.934 0 0 0-3.159-7.68z"/></defs><clipPath id="J"><use xlink:href="#I" overflow="visible"/></clipPath><clipPath id="L" clip-path="url(#J)"><use xlink:href="#K" overflow="visible"/></clipPath><path clip-path="url(#L)" fill="#1B2F45" d="M595.178 95.447h147.626v211.242H595.178z"/></g><g><defs><path id="M" d="M117.973 98.347h864.055v203.307H117.973z"/></defs><defs><path id="O" d="M771.266 154.821a28.243 28.243 0 0 0-6.72-9.431 28.933 28.933 0 0 0-9.884-5.647 34.997 34.997 0 0 0-11.859-1.863 36.454 36.454 0 0 0-12.199 1.976 27.113 27.113 0 0 0-16.377 15.361 31.28 31.28 0 0 0-2.315 12.31v66.358a33.351 33.351 0 0 0 2.315 12.707 26.98 26.98 0 0 0 6.495 9.6 28.794 28.794 0 0 0 9.882 6.044 34.894 34.894 0 0 0 12.199 2.09 33.537 33.537 0 0 0 11.917-2.09 30.193 30.193 0 0 0 9.826-5.761 27.533 27.533 0 0 0 6.72-9.6 32.16 32.16 0 0 0 2.429-12.708v-66.866a30.17 30.17 0 0 0-2.429-12.48zm-15.474 79.064a11.858 11.858 0 0 1-3.841 9.544 14.455 14.455 0 0 1-18.41 0 12.03 12.03 0 0 1-3.783-9.544v-66.583a12.255 12.255 0 0 1 3.783-9.713 14.458 14.458 0 0 1 18.41 0 12.082 12.082 0 0 1 3.841 9.713v66.583z"/></defs><clipPath id="N"><use xlink:href="#M" overflow="visible"/></clipPath><clipPath id="P" clip-path="url(#N)"><use xlink:href="#O" overflow="visible"/></clipPath><path clip-path="url(#P)" fill="#1B2F45" d="M669.553 95.519h146.503v211.163H669.553z"/></g><g><defs><path id="Q" d="M117.973 98.347h864.055v203.307H117.973z"/></defs><defs><path id="S" d="M838.753 144.486a26.376 26.376 0 0 0-9.884-5.195 42.923 42.923 0 0 0-11.858-1.412 44.746 44.746 0 0 0-12.199 1.581 26.074 26.074 0 0 0-9.883 5.139 23.435 23.435 0 0 0-6.494 9.149 36.01 36.01 0 0 0-2.315 13.835v66.301a33.876 33.876 0 0 0 2.315 13.045 27.154 27.154 0 0 0 6.494 9.545 27.527 27.527 0 0 0 9.883 5.647 38.07 38.07 0 0 0 24.114 0 29.213 29.213 0 0 0 9.884-5.647 25.54 25.54 0 0 0 6.721-9.432 34.335 34.335 0 0 0 2.428-13.553v-7.229l-17.902 5.647v1.977a11.803 11.803 0 0 1-3.84 9.601 13.833 13.833 0 0 1-9.149 3.219 13.498 13.498 0 0 1-9.262-3.332 12.022 12.022 0 0 1-3.783-9.544v-66.527a12.252 12.252 0 0 1 3.783-9.713 14.46 14.46 0 0 1 18.411 0 12.084 12.084 0 0 1 3.84 9.713v5.196h17.902v-5.196a33.89 33.89 0 0 0-2.428-13.609 24.826 24.826 0 0 0-6.778-9.206z"/></defs><clipPath id="R"><use xlink:href="#Q" overflow="visible"/></clipPath><clipPath id="T" clip-path="url(#R)"><use xlink:href="#S" overflow="visible"/></clipPath><path clip-path="url(#T)" fill="#1B2F45" d="M743.747 95.514h146.58v210.923h-146.58z"/></g><g><defs><path id="U" d="M117.973 98.347h864.055v203.307H117.973z"/></defs><defs><path id="W" d="M866.369 98.347a8.245 8.245 0 0 0-6.721 3.332 11.743 11.743 0 0 0-2.654 7.512 11.854 11.854 0 0 0 2.654 7.793 8.304 8.304 0 0 0 6.721 3.218 7.733 7.733 0 0 0 6.493-3.218 13.553 13.553 0 0 0 2.655-7.793 11.915 11.915 0 0 0-2.541-7.625 8.077 8.077 0 0 0-6.607-3.219z"/></defs><clipPath id="V"><use xlink:href="#U" overflow="visible"/></clipPath><clipPath id="X" clip-path="url(#V)"><use xlink:href="#W" overflow="visible"/></clipPath><path clip-path="url(#X)" fill="#1B2F45" d="M814.635 55.99h103.241v106.571H814.635z"/></g><g><defs><path id="Y" d="M857.784 137.88h16.942v124.242h-16.942z"/></defs><clipPath id="Z"><use xlink:href="#Y" overflow="visible"/></clipPath><path clip-path="url(#Z)" fill="#1B2F45" d="M815.429 95.524h101.654v208.955H815.429z"/></g><g><defs><path id="aa" d="M117.973 98.347h864.055v203.307H117.973z"/></defs><defs><path id="ac" d="M943.229 145.447a27.554 27.554 0 0 0-20.556-7.567 40.94 40.94 0 0 0-10.562 1.186 28.571 28.571 0 0 0-7.85 3.332 23.776 23.776 0 0 0-5.647 4.913 72.903 72.903 0 0 0-4.349 5.647l15.022 9.6a12.369 12.369 0 0 1 13.215-8.245 9.146 9.146 0 0 1 8.019 3.614 16.03 16.03 0 0 1 2.542 9.43v6.043a54.623 54.623 0 0 1-7.511 6.551l-9.375 6.721a134.109 134.109 0 0 0-9.77 7.794 57.44 57.44 0 0 0-9.093 9.77 49.315 49.315 0 0 0-6.325 12.312 47.849 47.849 0 0 0-2.429 15.926 40.501 40.501 0 0 0 2.315 14.627 28.633 28.633 0 0 0 6.438 9.938 23.77 23.77 0 0 0 8.753 5.647 28.244 28.244 0 0 0 9.771 1.808 23.275 23.275 0 0 0 12.425-2.881 19.354 19.354 0 0 0 6.889-6.89l4.066 7.003h11.804v-94.425a29.747 29.747 0 0 0-7.792-21.854zm-9.769 85.446a19.136 19.136 0 0 1-3.332 11.294 11.864 11.864 0 0 1-10.448 4.801 12.146 12.146 0 0 1-9.939-4.235 18.138 18.138 0 0 1-3.444-11.804 25.13 25.13 0 0 1 2.937-12.255 42.898 42.898 0 0 1 7.229-9.714 57.088 57.088 0 0 1 9.093-7.454l8.132-5.31-.228 34.677z"/></defs><clipPath id="ab"><use xlink:href="#aa" overflow="visible"/></clipPath><clipPath id="ad" clip-path="url(#ab)"><use xlink:href="#ac" overflow="visible"/></clipPath><path clip-path="url(#ad)" fill="#1B2F45" d="M846.192 95.481h147.237v211.398H846.192z"/></g><g><defs><path id="ae" d="M117.973 98.347h864.055v203.307H117.973z"/></defs><defs><path id="ag" d="M964.182 104.164v157.563h17.845V98.347l-17.845 5.817z"/></defs><clipPath id="af"><use xlink:href="#ae" overflow="visible"/></clipPath><clipPath id="ah" clip-path="url(#af)"><use xlink:href="#ag" overflow="visible"/></clipPath><path clip-path="url(#ah)" fill="#1B2F45" d="M921.826 55.991h102.557v248.091H921.826z"/></g><path fill="none" d="M0 0h1100v400H0z"/><g><defs><path id="ai" d="M117.973 96.347h864.055v203.307H117.973z"/></defs><defs><path id="ak" d="M156.375 244.93c-6.099 0-9.148-4.217-9.148-12.649v-79.459h23.606v-15.586h-23.606v-28.237l-17.958 5.987v22.25h-11.295v15.586h11.295v79.459a32.75 32.75 0 0 0 6.89 22.59 26.709 26.709 0 0 0 20.952 7.737 28.84 28.84 0 0 0 10.842-2.485 22.56 22.56 0 0 0 8.923-6.213l-12.368-12.988a8.755 8.755 0 0 1-8.133 4.008z"/></defs><clipPath id="aj"><use xlink:href="#ai" overflow="visible"/></clipPath><clipPath id="al" clip-path="url(#aj)"><use xlink:href="#ak" overflow="visible"/></clipPath><path clip-path="url(#al)" fill="#0076F0" d="M75.617 66.642h143.614v238.401H75.617z"/><defs><path id="am" d="M117.973 96.347h864.055v203.307H117.973z"/></defs><defs><path id="ao" d="M208.331 138.872a21.545 21.545 0 0 0-5.646 6.438l-4.066-7.793h-11.747v122.266h17.902v-92.674a13.947 13.947 0 0 1 3.558-9.883 11.291 11.291 0 0 1 8.359-3.896 7.23 7.23 0 0 1 5.648 1.581l6.099-15.812a14.505 14.505 0 0 0-10.673-3.218 14.335 14.335 0 0 0-9.434 2.991z"/></defs><clipPath id="an"><use xlink:href="#am" overflow="visible"/></clipPath><clipPath id="ap" clip-path="url(#an)"><use xlink:href="#ao" overflow="visible"/></clipPath><path clip-path="url(#ap)" fill="#0076F0" d="M144.516 93.449h126.276v208.689H144.516z"/><defs><path id="aq" d="M117.973 96.347h864.055v203.307H117.973z"/></defs><defs><path id="as" d="M278.755 231.885a12.087 12.087 0 0 1-3.672 9.714 13.325 13.325 0 0 1-8.922 3.105 12.757 12.757 0 0 1-9.036-3.332 12.358 12.358 0 0 1-3.614-9.487v-94.65h-17.846v92.843a36.656 36.656 0 0 0 7.003 24.058 23.66 23.66 0 0 0 19.201 8.415 22.202 22.202 0 0 0 12.933-2.993 25.679 25.679 0 0 0 5.986-5.648l4.067 5.648h11.803V137.235h-17.902v94.65h-.001z"/></defs><clipPath id="ar"><use xlink:href="#aq" overflow="visible"/></clipPath><clipPath id="at" clip-path="url(#ar)"><use xlink:href="#as" overflow="visible"/></clipPath><path clip-path="url(#at)" fill="#0076F0" d="M193.23 94.879h145.782v210.092H193.23z"/><defs><path id="au" d="M117.973 96.347h864.055v203.307H117.973z"/></defs><defs><path id="aw" d="M367.588 212.231a52.149 52.149 0 0 0-10.9-12.312l-12.819-10.73a73.66 73.66 0 0 1-10.786-10.843 19.71 19.71 0 0 1-4.462-12.65 14.405 14.405 0 0 1 3.163-9.827 11.291 11.291 0 0 1 8.866-3.614 11.697 11.697 0 0 1 8.867 3.501 13.213 13.213 0 0 1 3.332 9.543v4.461l17.507 4.01v-8.472a30.539 30.539 0 0 0-7.511-21.458 27.728 27.728 0 0 0-21.686-7.963 33.261 33.261 0 0 0-12.312 2.201 29.194 29.194 0 0 0-9.656 6.1 26.875 26.875 0 0 0-6.326 9.431 31.975 31.975 0 0 0-2.259 12.141 37.432 37.432 0 0 0 2.768 14.853 44.722 44.722 0 0 0 7.229 11.634 67.9 67.9 0 0 0 6.89 7.004 222.09 222.09 0 0 0 7.398 6.212l7.398 6.042a64.054 64.054 0 0 1 7.229 6.383 21.957 21.957 0 0 1 3.445 6.099 23.618 23.618 0 0 1 1.017 7.906c0 8.547-4.612 12.819-13.836 12.819a13.215 13.215 0 0 1-9.544-3.501 12.31 12.31 0 0 1-3.672-9.318v-4.631l-17.901-3.783v8.414a33.246 33.246 0 0 0 2.259 12.425 27.045 27.045 0 0 0 6.382 9.6 29.186 29.186 0 0 0 9.883 6.213 34.61 34.61 0 0 0 12.594 2.203c4.93.112 9.825-.851 14.344-2.824a28.699 28.699 0 0 0 9.94-7.511 31.42 31.42 0 0 0 5.647-10.73 41.113 41.113 0 0 0 2.033-12.367 31.9 31.9 0 0 0-1.242-8.697 31.057 31.057 0 0 0-3.279-7.964z"/></defs><clipPath id="av"><use xlink:href="#au" overflow="visible"/></clipPath><clipPath id="ax" clip-path="url(#av)"><use xlink:href="#aw" overflow="visible"/></clipPath><path clip-path="url(#ax)" fill="#0076F0" d="M266.667 93.439h147.795v211.25H266.667z"/><g><defs><path id="ay" d="M117.973 96.347h864.055v203.307H117.973z"/></defs><defs><path id="aA" d="M418.189 244.93c-6.099 0-9.149-4.217-9.149-12.649v-79.459h23.606v-15.586H409.04v-28.237l-17.903 5.987v22.25h-11.294v15.586h11.294v79.459a32.756 32.756 0 0 0 6.89 22.59 26.712 26.712 0 0 0 20.953 7.737 28.816 28.816 0 0 0 10.786-2.485 22.574 22.574 0 0 0 8.923-6.213l-12.368-12.988a8.751 8.751 0 0 1-8.132 4.008z"/></defs><clipPath id="az"><use xlink:href="#ay" overflow="visible"/></clipPath><clipPath id="aB" clip-path="url(#az)"><use xlink:href="#aA" overflow="visible"/></clipPath><path clip-path="url(#aB)" fill="#0076F0" d="M337.488 66.642h143.558v238.401H337.488z"/></g><g><defs><path id="aC" d="M117.973 96.347h864.055v203.307H117.973z"/></defs><defs><path id="aE" d="M457.439 96.347a8.245 8.245 0 0 0-6.721 3.332 11.754 11.754 0 0 0-2.654 7.512 11.854 11.854 0 0 0 2.654 7.793 8.307 8.307 0 0 0 6.721 3.218 7.737 7.737 0 0 0 6.495-3.218 13.56 13.56 0 0 0 2.654-7.793 11.916 11.916 0 0 0-2.542-7.625 8.076 8.076 0 0 0-6.607-3.219z"/></defs><clipPath id="aD"><use xlink:href="#aC" overflow="visible"/></clipPath><clipPath id="aF" clip-path="url(#aD)"><use xlink:href="#aE" overflow="visible"/></clipPath><path clip-path="url(#aF)" fill="#0076F0" d="M405.705 53.99h103.242v106.571H405.705z"/></g><g><defs><path id="aG" d="M448.064 137.235h17.902v122.492h-17.902z"/></defs><clipPath id="aH"><use xlink:href="#aG" overflow="visible"/></clipPath><path clip-path="url(#aH)" fill="#0076F0" d="M405.708 94.879h102.613v207.203H405.708z"/></g><g><defs><path id="aI" d="M117.973 96.347h864.055v203.307H117.973z"/></defs><defs><path id="aK" d="M514.535 135.88a29.752 29.752 0 0 0-11.973 1.976 22.04 22.04 0 0 0-7.511 5.647l-4.066-5.647h-11.577v121.928h17.903v-94.482a11.292 11.292 0 0 1 4.349-9.713 15.872 15.872 0 0 1 19.427 0 11.293 11.293 0 0 1 4.291 9.713v94.482h17.903v-95.046a28.8 28.8 0 0 0-7.85-21.177 27.723 27.723 0 0 0-20.896-7.681z"/></defs><clipPath id="aJ"><use xlink:href="#aI" overflow="visible"/></clipPath><clipPath id="aL" clip-path="url(#aJ)"><use xlink:href="#aK" overflow="visible"/></clipPath><path clip-path="url(#aL)" fill="#0076F0" d="M437.051 93.472h148.617v208.667H437.051z"/></g><g><defs><path id="aM" d="M117.973 96.347h864.055v203.307H117.973z"/></defs><defs><path id="aO" d="M582.529 241.824a8.474 8.474 0 0 1-1.468-4.292 8.689 8.689 0 0 1 2.032-5.647 13.156 13.156 0 0 1 9.263-2.823 33.087 33.087 0 0 0 22.589-8.811 28.693 28.693 0 0 0 6.721-20.048v-48.116l8.527-13.44h-22.194a25.77 25.77 0 0 0-6.946-2.09 64.373 64.373 0 0 0-11.803-.677 29.924 29.924 0 0 0-21.912 7.905 29.136 29.136 0 0 0-8.075 21.742v34.902a28.237 28.237 0 0 0 16.151 26.656 13.148 13.148 0 0 0-7.625 4.123 9.197 9.197 0 0 0-2.315 5.646 10.45 10.45 0 0 0 1.412 5.647 7.8 7.8 0 0 0 4.688 3.389 28.244 28.244 0 0 0-15.079 8.584 22.591 22.591 0 0 0-5.647 15.248 23.56 23.56 0 0 0 6.946 17.847 27.457 27.457 0 0 0 19.993 6.438h23.38l9.771-17.62h-32.756a12.889 12.889 0 0 1-6.833-1.694 5.647 5.647 0 0 1-2.768-5.646c0-4.745 3.596-7.117 10.786-7.117h36.37l9.939-17.619h-38.968a5.66 5.66 0 0 1-4.179-2.487zm-5.647-41.225v-35.692a11.861 11.861 0 0 1 3.953-9.939 15.761 15.761 0 0 1 18.807 0 11.692 11.692 0 0 1 4.009 9.939v35.692a11.298 11.298 0 0 1-4.065 9.6 15.361 15.361 0 0 1-18.807 0 11.637 11.637 0 0 1-4.01-9.6h.113z"/></defs><clipPath id="aN"><use xlink:href="#aM" overflow="visible"/></clipPath><clipPath id="aP" clip-path="url(#aN)"><use xlink:href="#aO" overflow="visible"/></clipPath><path clip-path="url(#aP)" fill="#0076F0" d="M508.465 93.481h164.083v242.971H508.465z"/></g><g><defs><path id="aQ" d="M117.973 96.347h864.055v203.307H117.973z"/></defs><defs><path id="aS" d="M696.043 212.231a52.107 52.107 0 0 0-10.9-12.312l-12.933-10.73a73.472 73.472 0 0 1-10.787-10.843 19.709 19.709 0 0 1-4.46-12.65 14.403 14.403 0 0 1 3.161-9.827 11.293 11.293 0 0 1 8.867-3.614 11.694 11.694 0 0 1 8.866 3.501 13.219 13.219 0 0 1 3.333 9.543v4.461l17.506 4.01v-8.472a30.543 30.543 0 0 0-7.511-21.458 27.723 27.723 0 0 0-21.573-7.963 33.268 33.268 0 0 0-12.312 2.201 29.228 29.228 0 0 0-9.6 5.875 26.925 26.925 0 0 0-6.326 9.43 31.975 31.975 0 0 0-2.259 12.141 37.449 37.449 0 0 0 2.767 14.853 44.786 44.786 0 0 0 6.946 11.633 67.902 67.902 0 0 0 6.891 7.003 222.128 222.128 0 0 0 7.398 6.213l7.397 6.042a64.008 64.008 0 0 1 6.89 6.608 21.935 21.935 0 0 1 3.446 6.099 23.628 23.628 0 0 1 1.863 7.906c0 8.547-4.612 12.819-13.837 12.819a13.22 13.22 0 0 1-9.545-3.501 12.317 12.317 0 0 1-3.952-9.318v-4.631l-17.846-3.614v8.245a33.285 33.285 0 0 0 2.258 12.425 27.061 27.061 0 0 0 6.383 9.6 29.202 29.202 0 0 0 9.826 6.213 34.61 34.61 0 0 0 12.594 2.203 33.93 33.93 0 0 0 14.345-2.824 28.695 28.695 0 0 0 9.939-7.511 31.42 31.42 0 0 0 5.647-10.73 41.124 41.124 0 0 0 1.92-12.65 31.855 31.855 0 0 0-1.243-8.696 30.934 30.934 0 0 0-3.159-7.68z"/></defs><clipPath id="aR"><use xlink:href="#aQ" overflow="visible"/></clipPath><clipPath id="aT" clip-path="url(#aR)"><use xlink:href="#aS" overflow="visible"/></clipPath><path clip-path="url(#aT)" fill="#1B2F45" d="M595.178 93.447h147.626v211.242H595.178z"/></g><g><defs><path id="aU" d="M117.973 96.347h864.055v203.307H117.973z"/></defs><defs><path id="aW" d="M771.266 152.821a28.243 28.243 0 0 0-6.72-9.431 28.933 28.933 0 0 0-9.884-5.647 34.997 34.997 0 0 0-11.859-1.863 36.454 36.454 0 0 0-12.199 1.976 27.113 27.113 0 0 0-16.377 15.361 31.28 31.28 0 0 0-2.315 12.31v66.358a33.351 33.351 0 0 0 2.315 12.707 26.98 26.98 0 0 0 6.495 9.6 28.794 28.794 0 0 0 9.882 6.044 34.894 34.894 0 0 0 12.199 2.09 33.537 33.537 0 0 0 11.917-2.09 30.193 30.193 0 0 0 9.826-5.761 27.533 27.533 0 0 0 6.72-9.6 32.16 32.16 0 0 0 2.429-12.708v-66.866a30.17 30.17 0 0 0-2.429-12.48zm-15.474 79.064a11.858 11.858 0 0 1-3.841 9.544 14.455 14.455 0 0 1-18.41 0 12.03 12.03 0 0 1-3.783-9.544v-66.583a12.255 12.255 0 0 1 3.783-9.713 14.458 14.458 0 0 1 18.41 0 12.082 12.082 0 0 1 3.841 9.713v66.583z"/></defs><clipPath id="aV"><use xlink:href="#aU" overflow="visible"/></clipPath><clipPath id="aX" clip-path="url(#aV)"><use xlink:href="#aW" overflow="visible"/></clipPath><path clip-path="url(#aX)" fill="#1B2F45" d="M669.553 93.519h146.503v211.163H669.553z"/></g><g><defs><path id="aY" d="M117.973 96.347h864.055v203.307H117.973z"/></defs><defs><path id="ba" d="M838.753 142.486a26.376 26.376 0 0 0-9.884-5.195 42.923 42.923 0 0 0-11.858-1.412 44.746 44.746 0 0 0-12.199 1.581 26.074 26.074 0 0 0-9.883 5.139 23.435 23.435 0 0 0-6.494 9.149 36.01 36.01 0 0 0-2.315 13.835v66.301a33.876 33.876 0 0 0 2.315 13.045 27.154 27.154 0 0 0 6.494 9.545 27.527 27.527 0 0 0 9.883 5.647 38.07 38.07 0 0 0 24.114 0 29.213 29.213 0 0 0 9.884-5.647 25.54 25.54 0 0 0 6.721-9.432 34.335 34.335 0 0 0 2.428-13.553v-7.229l-17.902 5.647v1.977a11.803 11.803 0 0 1-3.84 9.601 13.833 13.833 0 0 1-9.149 3.219 13.498 13.498 0 0 1-9.262-3.332 12.022 12.022 0 0 1-3.783-9.544v-66.527a12.252 12.252 0 0 1 3.783-9.713 14.46 14.46 0 0 1 18.411 0 12.084 12.084 0 0 1 3.84 9.713v5.196h17.902v-5.196a33.89 33.89 0 0 0-2.428-13.609 24.826 24.826 0 0 0-6.778-9.206z"/></defs><clipPath id="aZ"><use xlink:href="#aY" overflow="visible"/></clipPath><clipPath id="bb" clip-path="url(#aZ)"><use xlink:href="#ba" overflow="visible"/></clipPath><path clip-path="url(#bb)" fill="#1B2F45" d="M743.747 93.514h146.58v210.923h-146.58z"/></g><g><defs><path id="bc" d="M117.973 96.347h864.055v203.307H117.973z"/></defs><defs><path id="be" d="M866.369 96.347a8.245 8.245 0 0 0-6.721 3.332 11.743 11.743 0 0 0-2.654 7.512 11.854 11.854 0 0 0 2.654 7.793 8.304 8.304 0 0 0 6.721 3.218 7.733 7.733 0 0 0 6.493-3.218 13.553 13.553 0 0 0 2.655-7.793 11.915 11.915 0 0 0-2.541-7.625 8.077 8.077 0 0 0-6.607-3.219z"/></defs><clipPath id="bd"><use xlink:href="#bc" overflow="visible"/></clipPath><clipPath id="bf" clip-path="url(#bd)"><use xlink:href="#be" overflow="visible"/></clipPath><path clip-path="url(#bf)" fill="#1B2F45" d="M814.635 53.99h103.241v106.571H814.635z"/></g><g><defs><path id="bg" d="M857.784 135.88h16.942v124.242h-16.942z"/></defs><clipPath id="bh"><use xlink:href="#bg" overflow="visible"/></clipPath><path clip-path="url(#bh)" fill="#1B2F45" d="M815.429 93.524h101.654v208.955H815.429z"/></g><g><defs><path id="bi" d="M117.973 96.347h864.055v203.307H117.973z"/></defs><defs><path id="bk" d="M943.229 143.447a27.554 27.554 0 0 0-20.556-7.567 40.94 40.94 0 0 0-10.562 1.186 28.571 28.571 0 0 0-7.85 3.332 23.776 23.776 0 0 0-5.647 4.913 72.903 72.903 0 0 0-4.349 5.647l15.022 9.6a12.369 12.369 0 0 1 13.215-8.245 9.146 9.146 0 0 1 8.019 3.614 16.03 16.03 0 0 1 2.542 9.43v6.043a54.623 54.623 0 0 1-7.511 6.551l-9.375 6.721a134.109 134.109 0 0 0-9.77 7.794 57.44 57.44 0 0 0-9.093 9.77 49.315 49.315 0 0 0-6.325 12.312 47.849 47.849 0 0 0-2.429 15.926 40.501 40.501 0 0 0 2.315 14.627 28.633 28.633 0 0 0 6.438 9.938 23.77 23.77 0 0 0 8.753 5.647 28.244 28.244 0 0 0 9.771 1.808 23.275 23.275 0 0 0 12.425-2.881 19.354 19.354 0 0 0 6.889-6.89l4.066 7.003h11.804v-94.425a29.747 29.747 0 0 0-7.792-21.854zm-9.769 85.446a19.136 19.136 0 0 1-3.332 11.294 11.864 11.864 0 0 1-10.448 4.801 12.146 12.146 0 0 1-9.939-4.235 18.138 18.138 0 0 1-3.444-11.804 25.13 25.13 0 0 1 2.937-12.255 42.898 42.898 0 0 1 7.229-9.714 57.088 57.088 0 0 1 9.093-7.454l8.132-5.31-.228 34.677z"/></defs><clipPath id="bj"><use xlink:href="#bi" overflow="visible"/></clipPath><clipPath id="bl" clip-path="url(#bj)"><use xlink:href="#bk" overflow="visible"/></clipPath><path clip-path="url(#bl)" fill="#1B2F45" d="M846.192 93.481h147.237v211.398H846.192z"/></g><g><defs><path id="bm" d="M117.973 96.347h864.055v203.307H117.973z"/></defs><defs><path id="bo" d="M964.182 102.164v157.563h17.845V96.347l-17.845 5.817z"/></defs><clipPath id="bn"><use xlink:href="#bm" overflow="visible"/></clipPath><clipPath id="bp" clip-path="url(#bn)"><use xlink:href="#bo" overflow="visible"/></clipPath><path clip-path="url(#bp)" fill="#1B2F45" d="M921.826 53.991h102.557v248.091H921.826z"/></g></g></svg>